<?xml version="1.0" standalone="no"?>
<!DOCTYPE svg PUBLIC "-//W3C//DTD SVG 20010904//EN"
 "http://www.w3.org/TR/2001/REC-SVG-20010904/DTD/svg10.dtd">
<svg version="1.0" xmlns="http://www.w3.org/2000/svg"
 width="512.000000pt" height="512.000000pt" viewBox="0 0 512.000000 512.000000"
 preserveAspectRatio="xMidYMid meet">
<metadata>
Created by potrace 1.11, written by Peter Selinger 2001-2013
</metadata>
<g transform="translate(0.000000,512.000000) scale(0.100000,-0.100000)"
fill="#000000" stroke="none">
<path d="M3699 5116 c-2 -2 -33 -7 -69 -10 -231 -24 -526 -130 -765 -274 -271
-164 -539 -423 -714 -692 -84 -129 -184 -336 -230 -474 -22 -69 -42 -136 -45
-148 -2 -13 -11 -57 -20 -99 -15 -74 -30 -238 -29 -309 1 -19 3 -116 6 -215 8
-289 -31 -482 -149 -734 -84 -181 -108 -207 -737 -837 l-591 -592 -39 33 c-79
68 -133 57 -235 -49 -130 -134 -131 -131 187 -451 267 -268 278 -276 348 -261
30 7 161 131 182 173 24 47 7 105 -43 152 l-25 24 592 592 c637 636 657 655
849 744 123 58 215 88 356 118 129 26 206 29 582 21 262 -6 548 65 832 208
414 207 778 577 983 997 56 116 124 294 139 367 3 14 10 45 16 70 36 146 47
483 20 610 -6 30 -13 64 -15 75 -30 174 -157 419 -296 573 -166 182 -414 315
-684 367 -79 16 -394 32 -406 21z m344 -402 c26 -4 50 -10 52 -14 5 -8 -303
-320 -314 -320 -4 0 -35 28 -69 63 l-63 63 113 113 113 113 60 -6 c33 -3 81
-8 108 -12z m-450 -46 l-52 -52 -31 29 c-16 16 -27 32 -23 36 6 6 102 30 153
38 3 1 -19 -22 -47 -51z m765 -83 c34 -21 62 -43 62 -48 0 -11 -385 -397 -396
-397 -5 0 -37 28 -71 62 l-63 63 186 186 c140 141 191 186 204 181 9 -4 45
-25 78 -47z m-985 -23 l57 -58 -83 -82 -82 -82 -89 89 -88 89 102 51 c56 28
107 51 114 51 6 0 37 -26 69 -58z m-301 -414 l-82 -83 -105 105 c-58 58 -104
109 -102 115 2 5 41 40 87 78 l84 68 101 -101 100 -100 -83 -82z m1492 245
c11 -15 32 -50 48 -77 l27 -51 -187 -187 -187 -188 -66 66 -67 67 196 198
c109 109 202 198 207 198 6 0 19 -12 29 -26z m-956 -66 l63 -63 -83 -82 -82
-83 -63 63 c-35 34 -63 66 -63 69 0 9 150 159 159 159 4 0 35 -28 69 -63z
m-812 -287 l84 -85 -82 -82 -82 -82 -89 87 c-49 48 -92 94 -97 103 -10 17 -6
22 84 131 l48 60 25 -24 c14 -13 63 -61 109 -108z m1053 46 l63 -64 -81 -83
-82 -82 -67 66 -67 67 80 80 c44 44 82 80 85 80 3 0 34 -29 69 -64z m-519 -31
l64 -64 -20 -22 c-32 -37 -139 -139 -144 -139 -3 0 -34 28 -68 63 l-62 62 78
82 c42 44 79 81 82 82 3 1 34 -28 70 -64z m1388 -45 c21 -138 26 -125 -99
-250 l-112 -111 -64 63 c-35 34 -63 65 -63 68 0 4 71 77 157 163 103 104 159
153 164 145 4 -7 11 -42 17 -78z m-628 -165 l65 -65 -83 -83 -82 -82 -66 67
-67 66 79 81 c44 44 81 81 84 81 3 0 35 -29 70 -65z m-530 -177 c-43 -43 -82
-78 -87 -78 -4 0 -36 28 -70 62 l-63 63 82 82 83 83 67 -67 67 -67 -79 -78z
m-1041 100 c44 -44 81 -84 81 -87 0 -4 -36 -42 -79 -85 l-80 -79 -55 55 c-31
31 -56 63 -56 72 0 19 91 206 100 206 4 0 44 -37 89 -82z m540 11 l62 -62 -33
-35 c-18 -19 -55 -56 -83 -83 l-49 -49 -63 62 c-35 34 -63 65 -63 69 0 9 151
159 160 159 4 0 35 -28 69 -61z m1331 -240 c0 -4 -36 -43 -79 -87 l-80 -79
-66 67 -66 66 83 82 83 82 62 -62 c35 -34 63 -66 63 -69z m-573 29 l63 -63
-82 -82 -83 -83 -62 62 c-35 34 -63 66 -63 71 0 12 142 156 155 156 5 1 38
-27 72 -61z m892 25 c-5 -21 -12 -53 -16 -71 -8 -44 -15 -46 -48 -12 l-29 30
44 45 c24 25 47 45 51 45 4 0 3 -17 -2 -37z m-1447 -17 c13 -13 41 -42 62 -64
l39 -41 -83 -82 -82 -82 -66 67 -67 66 80 80 c44 44 83 80 87 80 4 0 17 -11
30 -24z m-470 -80 c26 -27 48 -52 48 -56 0 -7 -75 -85 -133 -139 l-26 -24 -66
65 -65 65 81 82 c91 92 77 92 161 7z m-462 -90 c0 -1 -23 -23 -51 -51 l-50
-49 6 34 c7 43 25 112 32 123 4 6 63 -49 63 -57z m2239 -40 c62 -63 63 -53
-12 -199 l-40 -79 -89 89 -88 88 77 77 c43 43 82 78 88 78 6 0 35 -24 64 -54z
m-511 -39 l63 -64 -82 -82 -82 -82 -64 63 c-34 34 -63 65 -63 69 0 8 152 159
160 159 3 0 34 -29 68 -63z m-520 -29 c34 -34 62 -65 62 -68 0 -3 -36 -42 -80
-85 l-81 -79 -66 66 -65 66 78 81 c44 44 81 80 84 80 3 1 34 -27 68 -61z
m-502 -47 l53 -54 -79 -78 c-44 -44 -82 -79 -86 -79 -10 0 -124 116 -124 126
0 5 35 43 77 86 86 87 73 87 159 -1z m-526 -21 c33 -33 60 -61 60 -63 0 -7
-313 -317 -320 -317 -8 0 -18 51 -26 130 -3 25 -7 55 -9 66 -4 17 21 47 106
133 61 61 115 111 120 111 6 0 37 -27 69 -60z m1823 -178 l97 -98 -67 -84
c-38 -46 -73 -85 -78 -87 -6 -2 -57 44 -115 102 l-105 105 80 80 c44 44 82 80
85 80 3 0 49 -44 103 -98z m-517 -32 c13 -14 24 -28 24 -31 0 -8 -149 -159
-158 -159 -4 0 -36 28 -70 63 l-63 63 83 82 82 82 40 -37 c21 -21 50 -49 62
-63z m-539 -10 l54 -54 -82 -82 -82 -83 -64 65 c-34 35 -63 66 -63 69 0 4 35
41 78 84 87 88 74 88 159 1z m-467 -85 c0 -3 -90 -95 -199 -205 l-199 -200
-29 37 c-17 21 -40 57 -53 81 l-24 43 188 188 188 188 64 -63 c35 -35 64 -66
64 -69z m1282 -180 l79 -80 -38 -34 c-21 -18 -54 -45 -73 -60 -19 -14 -41 -32
-48 -38 -7 -7 -16 -13 -20 -13 -4 0 -50 44 -104 97 l-97 97 81 83 82 83 29
-28 c16 -15 65 -63 109 -107z m-583 34 c70 -71 73 -56 -32 -160 l-69 -68 -66
64 -66 65 54 56 c30 31 64 67 75 79 11 13 25 23 32 24 6 1 39 -27 72 -60z
m-459 -96 c0 -5 -83 -91 -185 -193 l-184 -184 -43 24 c-24 13 -60 36 -80 52
l-38 30 202 202 202 201 63 -62 c35 -34 63 -66 63 -70z m719 -164 c45 -45 81
-85 81 -89 0 -3 -48 -30 -107 -58 l-108 -52 -58 61 -59 62 78 78 c43 44 82 79
85 79 4 0 43 -37 88 -81z m-522 -26 l52 -52 -96 -96 c-105 -105 -142 -137
-152 -131 -3 2 -39 7 -78 10 -40 4 -84 11 -97 16 -13 5 -27 7 -30 4 -17 -12
13 19 158 166 137 137 161 158 175 147 9 -6 39 -36 68 -64z m217 -219 c3 -7
-19 -16 -57 -24 -34 -7 -71 -14 -82 -17 -14 -4 -4 11 29 45 l49 51 28 -22 c15
-12 30 -27 33 -33z"/>
<path d="M3765 1243 c-62 -12 -144 -36 -141 -42 2 -3 -6 -7 -19 -7 -61 -4
-233 -151 -290 -249 -91 -154 -113 -352 -58 -513 50 -148 140 -261 276 -345
213 -131 509 -111 703 48 289 235 321 644 72 916 -66 71 -205 158 -230 143 -6
-4 -8 -3 -5 3 16 26 -225 62 -308 46z"/>
</g>
</svg>
