<?xml version="1.0" standalone="no"?>
<!DOCTYPE svg PUBLIC "-//W3C//DTD SVG 20010904//EN"
 "http://www.w3.org/TR/2001/REC-SVG-20010904/DTD/svg10.dtd">
<svg version="1.0" xmlns="http://www.w3.org/2000/svg"
 width="700.000000pt" height="700.000000pt" viewBox="0 0 700.000000 700.000000"
 preserveAspectRatio="xMidYMid meet">
<metadata>
Created by potrace 1.11, written by Peter Selinger 2001-2013
</metadata>
<g transform="translate(0.000000,700.000000) scale(0.100000,-0.100000)"
fill="#000000" stroke="none">
<path d="M5079 6996 c-2 -2 -38 -7 -79 -10 -41 -4 -84 -9 -95 -11 -20 -5 -52
-11 -115 -21 -107 -18 -356 -94 -475 -144 -375 -160 -680 -366 -970 -655 -101
-100 -152 -156 -210 -230 -22 -27 -43 -52 -46 -55 -18 -16 -157 -220 -208
-305 -148 -249 -266 -537 -322 -785 -31 -142 -33 -151 -44 -255 -4 -33 -9 -71
-11 -85 -6 -32 -4 -323 2 -375 11 -100 4 -428 -11 -485 -2 -8 -7 -35 -10 -60
-11 -79 -73 -305 -108 -396 -53 -138 -131 -288 -212 -409 -68 -102 -134 -170
-878 -913 l-803 -803 -49 45 c-80 75 -166 79 -242 13 -72 -63 -168 -169 -181
-199 -14 -34 -11 -103 7 -136 6 -10 164 -174 353 -364 360 -362 355 -358 442
-358 43 0 80 25 167 112 106 107 110 112 120 158 13 59 -3 109 -55 167 l-45
49 812 811 c447 445 835 825 862 845 258 179 553 295 883 348 101 17 153 18
372 14 469 -10 545 -6 770 38 414 80 831 278 1187 561 417 332 759 787 938
1250 73 191 134 418 151 562 3 33 8 69 11 80 3 11 6 103 8 205 3 216 -7 322
-47 495 -74 321 -226 596 -453 820 -128 126 -264 224 -420 299 -166 81 -339
134 -550 167 -64 10 -438 22 -446 15z m386 -542 c63 -12 131 -27 138 -31 4 -2
-92 -104 -214 -225 l-221 -220 -91 91 -92 91 155 155 155 156 75 -7 c41 -3 84
-8 95 -10z m-530 -45 c-22 -23 -53 -55 -70 -70 l-30 -28 -42 41 c-24 23 -40
44 -38 47 5 4 188 49 210 50 5 1 -9 -18 -30 -40z m950 -93 c52 -30 111 -68
144 -94 l24 -20 -277 -277 -278 -278 -89 89 c-49 49 -89 90 -89 92 0 6 508
512 514 512 4 0 27 -11 51 -24z m-1281 -72 c42 -42 76 -80 76 -84 0 -8 -205
-213 -218 -217 -11 -4 -234 225 -228 235 7 12 269 141 287 142 4 0 41 -34 83
-76z m-425 -325 c73 -72 131 -133 129 -135 -2 -1 -52 -53 -113 -114 l-109
-110 -144 143 c-95 95 -141 148 -137 157 7 18 216 189 231 189 6 1 70 -58 143
-130z m2068 74 c42 -59 93 -147 93 -158 0 -4 -115 -122 -256 -263 l-256 -255
-90 91 -91 92 274 274 c151 151 277 275 280 276 3 0 24 -26 46 -57z m-1310
-82 c40 -41 73 -79 73 -84 0 -11 -207 -217 -218 -217 -3 0 -45 39 -94 88 l-87
87 111 112 c93 93 114 110 127 100 8 -7 47 -45 88 -86z m-1147 -355 c77 -77
139 -143 138 -147 -4 -12 -210 -219 -217 -219 -3 0 -66 60 -139 133 l-132 133
87 108 c49 60 92 115 98 123 5 7 13 12 18 10 4 -1 70 -65 147 -141z m1496 6
l63 -63 -109 -110 c-91 -91 -113 -108 -127 -100 -23 13 -163 156 -163 166 0 4
48 56 108 116 l107 107 29 -26 c15 -15 57 -55 92 -90z m-750 -1 c122 -121 123
-93 -6 -222 l-112 -111 -92 91 -91 91 110 110 c60 60 113 110 116 110 4 0 37
-31 75 -69z m1898 6 c2 -15 7 -35 10 -45 6 -21 15 -95 21 -170 l5 -57 -155
-154 -155 -155 -91 91 -91 90 218 221 c121 121 222 217 226 214 4 -4 9 -19 12
-35z m-846 -308 c45 -44 82 -85 82 -90 0 -12 -204 -219 -216 -219 -4 0 -47 39
-95 87 l-86 88 106 107 c58 59 111 107 117 108 5 0 47 -36 92 -81z m-721 -28
c122 -122 122 -94 -7 -222 l-112 -112 -90 91 -91 91 109 110 c60 61 112 111
116 111 4 0 37 -31 75 -69z m-1401 -100 c47 -46 86 -88 87 -92 1 -4 -47 -58
-108 -119 l-109 -110 -78 77 c-43 43 -78 83 -78 90 0 16 63 154 107 231 l35
64 30 -29 c16 -15 68 -66 114 -112z m713 35 l90 -88 -110 -109 c-61 -60 -113
-109 -117 -109 -4 0 -46 39 -94 87 l-88 88 112 112 c62 62 113 111 115 110 1
-1 43 -42 92 -91z m1767 -265 l63 -65 -112 -113 -111 -113 -88 88 c-48 48 -88
90 -88 94 0 5 48 57 108 117 l107 109 29 -26 c15 -15 57 -56 92 -91z m-750 1
c123 -122 123 -94 -6 -223 l-112 -113 -90 92 -90 91 108 110 c60 61 112 111
115 111 4 0 38 -31 75 -68z m1232 -32 c-11 -52 -23 -101 -27 -108 -5 -9 -20 1
-49 32 l-41 44 66 66 c36 37 67 65 69 63 2 -1 -6 -45 -18 -97z m-1925 -27 c48
-48 87 -91 87 -96 0 -10 -205 -217 -216 -217 -10 0 -174 162 -174 172 0 6 207
224 216 228 0 0 40 -39 87 -87z m-700 -50 c48 -47 87 -88 87 -90 0 -2 -50 -53
-112 -114 l-111 -111 -91 91 -91 91 110 110 c60 60 112 110 116 110 3 0 45
-39 92 -87z m-655 -94 c23 -23 41 -42 39 -43 -1 -1 -33 -30 -71 -66 -64 -61
-68 -63 -62 -35 4 17 8 41 11 55 14 72 29 130 34 130 4 0 25 -19 49 -41z
m3077 -78 c105 -103 100 -92 75 -148 -33 -75 -100 -206 -116 -227 -13 -18 -20
-13 -129 95 -63 63 -115 117 -115 120 0 8 212 219 220 219 3 0 32 -26 65 -59z
m-681 -67 c47 -47 86 -88 86 -92 0 -4 -49 -57 -110 -117 l-110 -109 -91 91
-91 90 108 111 c60 61 112 111 115 112 3 0 45 -38 93 -86z m-725 -246 c-61
-59 -113 -108 -117 -108 -10 0 -172 163 -172 174 0 5 49 57 109 117 l110 108
90 -91 90 -91 -110 -109z m-663 133 c74 -75 81 -55 -60 -195 l-98 -98 -89 88
c-49 49 -89 90 -89 92 0 2 50 54 110 114 l111 111 26 -24 c14 -13 54 -53 89
-88z m-676 -74 l37 -39 -220 -220 c-146 -146 -222 -216 -227 -208 -4 7 -11 33
-15 59 -3 25 -8 55 -11 66 -2 11 -7 55 -11 98 l-6 79 154 154 154 154 54 -53
c29 -28 70 -69 91 -90z m2452 -201 c65 -65 118 -122 118 -125 0 -13 -92 -131
-157 -201 l-42 -45 -146 145 -146 146 112 112 c95 94 115 110 128 99 8 -6 68
-65 133 -131z m-760 7 l88 -87 -113 -113 -112 -113 -91 91 -92 92 112 112 c61
62 113 111 116 109 3 -3 44 -44 92 -91z m-736 -12 c32 -32 72 -73 88 -89 l29
-31 -113 -112 -112 -112 -91 91 -91 91 111 111 c62 60 114 110 116 110 2 0 31
-26 63 -59z m-651 -100 l63 -64 -276 -276 -277 -277 -30 41 c-52 69 -105 158
-105 177 0 6 114 124 253 263 l252 253 29 -27 c15 -14 57 -55 91 -90z m1771
-271 l146 -145 -52 -47 c-64 -59 -181 -148 -195 -148 -13 0 -271 257 -265 265
15 17 215 221 217 221 1 -1 68 -66 149 -146z m-763 13 c48 -47 87 -89 87 -92
0 -3 -50 -55 -110 -116 l-110 -110 -91 92 -92 91 109 110 c60 61 111 111 114
112 3 0 45 -39 93 -87z m-683 -67 l68 -69 -254 -253 c-139 -140 -259 -254
-265 -254 -14 0 -119 63 -175 104 l-41 31 276 276 276 277 24 -22 c13 -11 54
-52 91 -90z m1076 -326 c99 -99 104 -85 -61 -165 -160 -79 -147 -79 -238 13
l-78 79 112 111 113 112 34 -33 c19 -17 72 -70 118 -117z m-730 -20 l53 -55
-152 -153 -152 -154 -75 6 c-66 5 -99 10 -209 31 -13 2 -26 7 -29 9 -2 3 94
104 214 225 l219 219 39 -36 c21 -21 63 -62 92 -92z m275 -294 c-12 -7 -177
-44 -203 -46 -4 0 24 31 63 68 l70 69 42 -41 c34 -33 39 -43 28 -50z"/>
<path d="M5119 1694 c-42 -7 -103 -24 -135 -36 -33 -12 -61 -23 -64 -23 -19
-3 -115 -61 -165 -98 -173 -130 -301 -336 -332 -533 -9 -62 -10 -212 -1 -284
15 -117 86 -285 164 -387 155 -203 400 -326 662 -332 391 -9 737 251 843 634
32 115 33 316 1 433 -116 429 -539 701 -973 626z"/>
</g>
</svg>
